<svg xmlns:dc="http://purl.org/dc/elements/1.1/"
		 xmlns:cc="http://creativecommons.org/ns#"
		 xmlns:rdf="http://www.w3.org/1999/02/22-rdf-syntax-ns#"
		 xmlns:svg="http://www.w3.org/2000/svg"
		 xmlns="http://www.w3.org/2000/svg"
		 xmlns:sodipodi="http://sodipodi.sourceforge.net/DTD/sodipodi-0.dtd"
		 xmlns:inkscape="http://www.inkscape.org/namespaces/inkscape"
		 width="5.6444445mm"
		 height="9.847393mm"
		 viewBox="0 0 20 34.892337"
		 id="svgcontent"
		 version="1.1"
		 inkscape:version="0.91 r13725"
		 sodipodi:docname="Map Pin.svg"
		 x="337.49985274690505"
		 y="301.5673489497694">
	<defs id="defs3457"
				style="pointer-events: inherit"></defs>
	<metadata id="metadata3460"
						style="pointer-events: inherit">image/svg+xml</metadata>
	<g style="pointer-events:all">
		<title style="pointer-events: inherit">Layer 1</title>
		<path sodipodi:nodetypes="sscccccsscs"
					inkscape:connector-curvature="0"
					id="path4337-3"
					d="M2.984293760204082,3.7028963057404667 C1.4926318096158866,5.2948710286622855 0.5583038756488463,7.613932548523536 0.594582930528901,9.795252218843075 C0.6703421333668302,14.35356133782922 2.72500522091363,16.079116489291792 6.010784994327793,22.35277282959281 C7.194383231842323,25.113431067467303 8.429708762311776,28.034558915734877 9.604604769015083,32.872572434306704 C9.767884227776364,33.58621464031995 9.9271208245394,34.2490898813015 10.00078153302644,34.306519862294806 C10.074406673812604,34.36402097868978 10.233678838276688,33.69876270175037 10.396958297037827,32.98512049573719 C11.571854303741247,28.147106977165308 12.807179834210729,25.228302885354168 13.990778071725117,22.467644647479673 C17.27655784513928,16.193988307178586 19.33119722088557,14.468421299815759 19.40698013552401,9.910112180829628 C19.443259190404206,7.728792510510075 18.506619355880986,5.407419090092773 17.01495740529279,3.8154443671708904 C15.310979992353737,1.9968796779519096 12.740857928001645,0.6510097332006239 10.00078153302644,0.5947297745352813 C7.260705138051264,0.5384142481690333 4.688271173143136,1.8843316165214858 2.984293760204082,3.7028963057404667 z"
					fill="#9B49DF"
					stroke="#FDFDFD"
					stroke-miterlimit="4"></path><text fill="#FDFDFD"
					stroke-width="0"
					x="6.217491904240927"
					y="13.052434158444733"
					id="svg_3"
					font-size="10"
					font-family="'Arial'"
					text-anchor="start"
					xml:space="preserve"
					stroke="#000"
					transform="matrix(1.27646 0 0 1.27646 -1.91712 -1.17792)">B</text>
	</g>
</svg>
